<?xml version="1.0" encoding="utf-8"?>
<!DOCTYPE svg PUBLIC "-//W3C//DTD SVG 20010904//EN" "http://www.w3.org/TR/2001/REC-SVG-20010904/DTD/svg10.dtd">
<svg version="1.0" xmlns="http://www.w3.org/2000/svg" width="512px" height="512px" viewBox="0 0 512 512" preserveAspectRatio="xMidYMid meet">
 <g fill="#ffaf2a">
  <path d="M190.5 228.8 c-10.9 -2.7 -17.5 -5 -17.5 -6.1 0 -1.6 21.1 -22.7 22.7 -22.7 1.7 0 1.9 0.4 5.2 13.5 2.9 10.9 3 12 1.6 14.2 -1.7 2.5 -4.9 2.9 -12 1.1z"/>
 </g>
 <g fill="#ff9b1e">
  <path d="M166.5 222.3 c-16.2 -4.2 -19.5 -5.3 -19.5 -6.6 0 -0.7 9.2 -10.4 20.4 -21.6 14.6 -14.6 20.9 -20.2 22 -19.8 0.9 0.4 1.6 1 1.6 1.4 0 0.4 1.6 6.6 3.5 13.8 l3.4 13 -11.2 11.1 -11.2 11.1 -9 -2.4z"/>
 </g>
 <g fill="#9cc652">
  <path d="M245.1 380.9 c-21.6 -2.3 -40.9 -11.3 -57.2 -26.6 -23.4 -22 -34.5 -52.1 -31 -83.7 1.9 -16.5 5 -22.2 12.9 -23.3 4.9 -0.7 9.3 1.7 11.8 6.2 1.7 3.3 1.7 3.5 -0.6 19.6 -0.9 6.5 -1 10.6 -0.1 16.8 4 30 22.8 53.3 51.1 63.2 8.2 2.8 11.1 3.4 21.4 3.7 12.9 0.5 20.3 -0.8 31.8 -5.5 15.2 -6.1 30.2 -19.8 37.8 -34.5 1.4 -2.7 3 -4.8 3.7 -4.8 0.6 0 5 3.3 9.6 7.3 6.7 5.6 8.4 7.6 8 9.2 -0.7 2.6 -10.2 15.9 -15 21.1 -10.9 11.7 -26.8 21.9 -42.8 27.4 -3.3 1.2 -11.2 2.8 -17.5 3.5 -12.8 1.6 -12.2 1.6 -23.9 0.4z"/>
 </g>
 <g fill="#ff800f">
  <path d="M140.5 215.4 c-16.8 -4.5 -19.5 -5.4 -19.5 -6.9 0 -1.6 59.3 -61.5 60.9 -61.5 1.1 0 2.3 3.7 6.5 20 l2.5 9.5 -20.7 20.6 -20.7 20.7 -9 -2.4z"/>
 </g>
 <g fill="#0098e6">
  <path d="M383 262.6 l-11.5 -8.3 -1.8 -6.9 c-4 -15.2 -15.2 -34.5 -27.5 -47.5 -22.3 -23.7 -53.3 -36.9 -86.6 -36.9 l-11.1 0 -13.7 -9.7 c-7.4 -5.4 -13.6 -10.2 -13.7 -10.8 -0.1 -0.5 8.5 -9.9 19.1 -20.9 10.6 -10.9 19.4 -20.2 19.6 -20.7 0.2 -0.5 -11.3 -0.9 -26.1 -0.9 -25.8 0 -26.5 0 -29.8 -2.3 -2.1 -1.4 -3.9 -3.8 -4.8 -6.3 -1.3 -3.7 -1.2 -4.4 0.5 -7.9 4 -8 0 -7.5 62.6 -7.3 l55.7 0.3 -11.6 12 c-6.3 6.6 -19.6 20.1 -29.4 30 -9.9 10 -17.9 18.4 -17.9 18.7 0 0.3 4.4 0.9 9.7 1.3 32.1 2.4 62.3 14.9 85.5 35.3 10.6 9.3 22.2 23.2 29.1 34.7 9.4 15.8 17.7 41 19 57.3 0.4 4.8 0.2 5.2 -1.7 5.2 -1.2 0 -7.3 -3.8 -13.6 -8.4z"/>
 </g>
 <g fill="#ff6b03">
  <path d="M119.2 209.4 c-5.4 -1.6 -7.2 -3 -7.2 -6 0 -3.6 60.7 -64.4 64.2 -64.4 3.1 0 5.3 2.4 6.6 7.2 l1 3.8 -30.2 30.3 -30.2 30.4 -4.2 -1.3z"/>
 </g>
 <g fill="#7fba33">
  <path d="M333.8 322.8 l-9.5 -8.2 1.7 -4.1 c7.4 -17.4 7.2 -41.5 -0.5 -59.1 -6.9 -15.6 -20 -29.7 -34.6 -37 -14.9 -7.5 -33 -10.1 -49.8 -7 -7.1 1.3 -8.9 1.3 -11.6 0.2 -7.7 -3.2 -10.1 -12.7 -4.7 -18.7 6 -6.7 32.2 -9.3 52.2 -5.1 36.2 7.7 65.3 35.3 75.7 71.8 2.5 9 2.8 11.3 2.8 25.9 0 14.5 -0.3 16.9 -2.8 25.7 -1.5 5.4 -4.3 12.9 -6.1 16.7 l-3.4 7 -9.4 -8.1z"/>
 </g>
 <g fill="#008ad5">
  <path d="M383 309.2 l-9.5 -6.8 0.5 -4.9 c1.5 -15.3 -0.3 -39.3 -3.7 -48.1 -0.3 -0.9 5.9 3.1 13.8 8.8 l14.4 10.5 0.3 9.9 c0.5 16.8 -2.3 37.4 -5.1 37.4 -0.7 0 -5.5 -3.1 -10.7 -6.8z"/>
  <path d="M217.5 165.5 c-5.1 -2.6 -7.5 -6.4 -7.5 -11.8 0 -4.2 0.5 -5.3 4.2 -9.3 2.3 -2.5 4.6 -4.3 5.3 -4 0.6 0.2 8 5.3 16.3 11.2 l15.3 10.9 -8.3 1.1 c-4.6 0.6 -10.7 1.6 -13.6 2.3 -6.9 1.4 -8.1 1.4 -11.7 -0.4z"/>
 </g>
 <g fill="#007dc5">
  <path d="M378 353.1 c0 -0.8 -8 -6.9 -17.2 -13.2 -0.4 -0.3 0.2 -2.5 1.3 -4.9 4.5 -9.3 6.1 -13.8 9 -25 1.6 -6.2 3.1 -11.5 3.2 -11.7 0.2 -0.1 5 3.2 10.9 7.3 l10.6 7.5 -0.9 3.7 c-0.6 2 -2 6.6 -3.1 10.2 -4 12.6 -13.8 31.1 -13.8 26.1z"/>
 </g>
 <g fill="#0073b9">
  <path d="M353 376.4 c-2.5 -1.9 -6.6 -4.9 -9.2 -6.7 l-4.7 -3.3 4.8 -5 c2.7 -2.7 7.4 -8.8 10.4 -13.4 3.1 -4.7 6.2 -9.3 6.9 -10.3 1.2 -1.6 2 -1.3 10.6 4.9 5 3.6 9.2 7 9.2 7.6 0 4 -19 29.7 -22 29.7 -0.8 0 -3.5 -1.6 -6 -3.5z"/>
 </g>
 <g fill="#0169ac">
  <path d="M313.3 399.7 c-5.7 -4 -10.3 -7.5 -10.3 -7.9 0 -0.3 3.8 -2.6 8.4 -5.1 9.5 -5 16.6 -10.1 24.9 -17.7 3.1 -2.8 6.3 -5 7 -4.7 0.6 0.3 5.2 3.4 10 7 l8.8 6.5 -6.3 6.2 c-9.4 9.3 -28.2 23.1 -31.2 23 -0.6 -0.1 -5.7 -3.3 -11.3 -7.3z"/>
  <path d="M125 264.8 c-10.3 -7.7 -9.9 -6.8 -7.9 -16.8 2 -9.5 9.6 -14.1 17.4 -10.4 2.7 1.3 4.3 3 5.7 6.1 1.7 3.9 1.8 4.7 0.4 10 -0.8 3.2 -1.7 8.6 -2.1 12.1 -0.5 4.8 -1.1 6.2 -2.3 6.2 -1 -0.1 -6 -3.3 -11.2 -7.2z"/>
 </g>
 <g fill="#015b9b">
  <path d="M258.2 413.9 c-18.2 -13 -18.4 -13.9 -3.4 -13.9 15.8 0 26.2 -1.6 39.8 -6.2 l12.1 -4 10.1 7.2 c5.6 3.9 10.4 7.5 10.6 7.9 0.6 1 -16.7 9.3 -26.4 12.6 -5.4 1.9 -25.6 6.5 -28.5 6.5 0 0 -6.5 -4.6 -14.3 -10.1z"/>
  <path d="M130 322.1 l-13.5 -9.8 -1.2 -5.9 c-2.9 -13.7 -2.5 -46.3 0.7 -51.4 0.9 -1.4 1.7 -0.9 14.7 8.8 l7.3 5.4 0 12.2 c0 6.6 0.5 15.4 1 19.3 0.8 5.9 5.2 21.4 8.5 29.6 1.7 4 -4.6 1.1 -17.5 -8.2z"/>
 </g>
 <g fill="#014f8c">
  <path d="M243.5 424.4 c-9.4 -1 -25.8 -4.6 -34.1 -7.5 -11.3 -3.9 -27.9 -12.5 -36.9 -19.1 -10.4 -7.6 -28.2 -26 -34.8 -36 -9.5 -14.2 -18.3 -34.4 -20.8 -47.3 -0.5 -2.7 -1.2 -5.8 -1.5 -6.8 -0.5 -1.6 29.2 18.8 31.4 21.6 0.5 0.7 2.2 3.7 3.8 6.7 17.5 33.7 51.7 58.2 88.1 63 7.1 0.9 7.5 1.2 23.2 12.4 13.5 9.6 15.7 11.5 13.8 12 -2.9 0.8 -27.1 1.5 -32.2 1z"/>
 </g>
</svg>